<svg width="263" height="19" viewBox="0 0 263 19" fill="none" xmlns="http://www.w3.org/2000/svg">
<path d="M7.78 3.10999L8.23999 3.57999L14.52 9.84V3.44001L14.46 3.37C12.05 1.18 9.93 1.09999 7.78 3.10999ZM0.670013 3.10999L12.58 15C12.75 15.19 12.94 15.36 13.11 15.53C13.5414 15.932 14.014 16.2873 14.52 16.59V10.52L7.37 3.38001C5 1.18001 2.81001 1.09999 0.670013 3.10999ZM6 15.52C8.45 17.78 10.59 17.87 12.75 15.85L12.24 15.33L0.23999 3.42002V9.82001L5.42999 14.99C5.65999 15.18 5.85 15.35 6 15.52ZM5.67999 15.85C5.50999 15.69 5.31999 15.52 5.14999 15.33L1.60001 11.79L0.299988 10.5V16.56C2.18999 17.71 3.92999 17.48 5.67999 15.85Z" fill="white"/>
<path d="M14.52 2.81V2.79999L14.51 2.81H14.52ZM14.36 2.94L14.19 3.10999L14.46 3.37L14.52 3.44V2.81L14.36 2.94ZM13.43 15.85L13.26 16.02L13.13 16.15C13.554 16.5349 14.0203 16.8704 14.52 17.15V16.62C14.014 16.3173 13.5414 15.962 13.11 15.56L13.43 15.85Z" fill="#A4897A"/>
<path d="M7.78 3.10999C9.93 1.10999 12.05 1.18 14.46 3.37L14.19 3.10999L14.36 2.94L14.51 2.79999C13.5276 1.84779 12.2358 1.28003 10.87 1.20001C9.54892 1.26038 8.30372 1.83451 7.39999 2.79999C7.68999 3.02999 7.94999 3.29999 8.23999 3.57999L7.78 3.10999Z" fill="#A4897A"/>
<path d="M7.39999 2.79999L7.26999 2.94L7.10001 3.10999L7.37 3.37L14.52 10.51V9.84L8.23999 3.57999C7.99999 3.29999 7.68999 2.99999 7.39999 2.79999ZM6 15.52L6.32001 15.85L6.14999 16.02C6.10251 16.0661 6.05243 16.1096 6 16.15C6.9784 17.1096 8.27178 17.6817 9.64001 17.76C10.9623 17.696 12.2073 17.1183 13.11 16.15C13 16.05 12.86 15.96 12.75 15.85C10.61 17.87 8.47 17.78 6 15.52Z" fill="#A4897A"/>
<path d="M7.37 3.37L7.10001 3.10999L7.26999 2.94L7.39999 2.79999C6.42674 1.84612 5.14054 1.27765 3.78 1.20001C2.45893 1.26038 1.21373 1.83451 0.309998 2.79999L0.670013 3.10999C2.81001 1.09999 5 1.18 7.37 3.37ZM12.77 15.85C12.88 15.96 13.02 16.05 13.13 16.15L13.26 16.02L13.43 15.85L13.11 15.52C12.94 15.35 12.75 15.18 12.58 14.99L0.670013 3.10999L0.309998 2.79999V3.41L12.31 15.32L12.77 15.85ZM6 16.15C5.89 16.05 5.77 15.96 5.66 15.85C3.91 17.48 2.17 17.71 0.279999 16.56V17.1C0.96843 17.509 1.74959 17.7361 2.54999 17.76C3.8673 17.6993 5.10731 17.1206 6 16.15ZM0.299988 2.79999V2.81H0.309998L0.299988 2.79999ZM5.14999 15.33C5.31999 15.52 5.50999 15.69 5.67999 15.85C5.84999 16.01 5.90999 16.05 6.01999 16.15C6.07242 16.1096 6.12253 16.0661 6.17001 16.02L6.34 15.85L6.01999 15.52C5.84999 15.35 5.65999 15.18 5.48999 14.99L0.299988 9.82001V10.5L1.60001 11.79L5.14999 15.33Z" fill="#A4897A"/>
<path d="M22 3.10999L22.46 3.57999L28.75 9.84V3.44001L28.68 3.37C26.27 1.18 24.15 1.09999 22 3.10999ZM14.89 3.10999L26.8 15C26.97 15.19 27.16 15.36 27.33 15.53C27.7648 15.9322 28.2407 16.2875 28.75 16.59V10.52L21.59 3.38001C19.18 1.18001 17 1.09999 14.89 3.10999ZM20.24 15.52C22.69 17.78 24.83 17.87 26.99 15.85L26.48 15.33L14.48 3.42002V9.82001L19.67 14.99C19.88 15.18 20.07 15.35 20.24 15.52ZM19.9 15.85C19.73 15.69 19.54 15.52 19.37 15.33L15.82 11.79L14.52 10.5V16.56C16.42 17.71 18.15 17.48 19.9 15.85Z" fill="white"/>
<path d="M28.75 2.81V2.79999L28.74 2.81H28.75ZM28.58 2.94L28.41 3.10999L28.68 3.37L28.75 3.44V2.81C28.6888 2.84713 28.6319 2.89071 28.58 2.94ZM27.66 15.85L27.49 16.02L27.35 16.15C27.7773 16.5352 28.247 16.8707 28.75 17.15V16.62C28.2407 16.3175 27.7648 15.9622 27.33 15.56L27.66 15.85Z" fill="#A4897A"/>
<path d="M22 3.10999C24.15 1.10999 26.27 1.18 28.68 3.37L28.41 3.10999L28.58 2.94C28.6282 2.88778 28.6818 2.84084 28.74 2.79999C27.756 1.85002 26.4652 1.28265 25.1 1.20001C23.7771 1.25291 22.5292 1.82828 21.63 2.79999C21.91 3.02999 22.18 3.29999 22.46 3.57999L22 3.10999Z" fill="#A4897A"/>
<path d="M21.63 2.79999L21.49 2.94L21.32 3.10999L21.59 3.37L28.75 10.51V9.84L22.46 3.57999C22.18 3.29999 21.91 2.99999 21.63 2.79999ZM20.24 15.52L20.56 15.85L20.39 16.02C20.3448 16.0685 20.2945 16.1121 20.24 16.15C21.2184 17.1096 22.5118 17.6817 23.88 17.76C25.2028 17.6981 26.4485 17.12 27.35 16.15L26.99 15.85C24.83 17.87 22.69 17.78 20.24 15.52Z" fill="#A4897A"/>
<path d="M21.59 3.37L21.32 3.10999L21.49 2.94L21.63 2.79999C20.6521 1.84696 19.3632 1.27885 18 1.20001C16.6789 1.26038 15.4337 1.83451 14.53 2.79999L14.89 3.10999C17 1.09999 19.18 1.18 21.59 3.37Z" fill="#A4897A"/>
<path d="M27 15.85L27.36 16.15L27.5 16.02L27.67 15.85L27.34 15.52C27.17 15.35 26.98 15.18 26.81 14.99L14.9 3.10999L14.54 2.79999V3.41L26.54 15.32L27 15.85ZM20.24 16.15C20.13 16.05 20.01 15.96 19.9 15.85C18.15 17.48 16.42 17.71 14.52 16.56V17.1C15.2089 17.5078 15.9898 17.7348 16.79 17.76C18.1073 17.6993 19.3473 17.1206 20.24 16.15ZM14.52 2.79999V2.81H14.53L14.52 2.79999Z" fill="#A4897A"/>
<path d="M19.37 15.33C19.54 15.52 19.73 15.69 19.9 15.85C20.07 16.01 20.13 16.05 20.24 16.15C20.2945 16.1121 20.3448 16.0685 20.39 16.02L20.56 15.85L20.24 15.52C20.07 15.35 19.88 15.18 19.71 14.99L14.52 9.82001V10.5L15.82 11.79L19.37 15.33Z" fill="#A4897A"/>
<path d="M36.23 3.10999L36.68 3.57999L42.97 9.84V3.44001L42.9 3.37C40.49 1.18 38.37 1.09999 36.23 3.10999ZM29.12 3.10999L41 15C41.18 15.19 41.37 15.36 41.54 15.53C41.9714 15.932 42.444 16.2873 42.95 16.59V10.52L35.79 3.38001C33.4 1.18001 31.26 1.09999 29.12 3.10999ZM34.46 15.52C36.91 17.78 39.05 17.87 41.21 15.85L40.7 15.33L28.7 3.42002V9.82001L33.88 14.99C34.1 15.18 34.29 15.35 34.46 15.52ZM34.12 15.85C33.95 15.69 33.76 15.52 33.59 15.33L30.05 11.79L28.75 10.5V16.56C30.64 17.71 32.38 17.48 34.12 15.85Z" fill="white"/>
<path d="M42.97 2.81V2.79999L42.96 2.81H42.97ZM42.81 2.94L42.64 3.10999L42.9 3.37L42.97 3.44V2.81C42.9102 2.84468 42.8562 2.88856 42.81 2.94ZM41.88 15.85L41.71 16.02L41.57 16.15C41.9994 16.5327 42.4687 16.868 42.97 17.15V16.62C42.464 16.3173 41.9914 15.962 41.56 15.56L41.88 15.85Z" fill="#A4897A"/>
<path d="M36.23 3.10999C38.37 1.10999 40.49 1.18 42.9 3.37L42.64 3.10999L42.81 2.94C42.8524 2.8858 42.903 2.83855 42.96 2.79999C41.9761 1.85002 40.6852 1.28265 39.32 1.20001C37.9971 1.25291 36.7492 1.82828 35.85 2.79999C36.13 3.02999 36.4 3.29999 36.68 3.57999L36.23 3.10999Z" fill="#A4897A"/>
<path d="M35.85 2.79999L35.72 2.94L35.54 3.10999L35.81 3.37L42.97 10.51V9.84L36.68 3.57999C36.4 3.29999 36.13 2.99999 35.85 2.79999ZM34.46 15.52L34.79 15.85L34.62 16.02L34.46 16.15C35.4384 17.1096 36.7317 17.6817 38.1 17.76C39.4243 17.7045 40.6725 17.1254 41.57 16.15L41.21 15.85C39.05 17.87 36.91 17.78 34.46 15.52Z" fill="#A4897A"/>
<path d="M35.81 3.37L35.54 3.10999L35.72 2.94L35.85 2.79999C34.8757 1.84764 33.5901 1.27944 32.23 1.20001C30.9071 1.25291 29.6592 1.82828 28.76 2.79999L29.12 3.10999C31.26 1.09999 33.4 1.18 35.81 3.37Z" fill="#A4897A"/>
<path d="M41.21 15.85L41.57 16.15L41.71 16.02L41.88 15.85L41.56 15.52C41.39 15.35 41.2 15.18 41.02 14.99L29.12 3.10999L28.76 2.79999V3.41L40.76 15.32L41.21 15.85ZM34.46 16.15L34.12 15.85C32.38 17.48 30.64 17.71 28.75 16.56V17.1C29.4348 17.509 30.2127 17.7362 31.01 17.76C32.3273 17.6993 33.5673 17.1206 34.46 16.15ZM28.75 2.79999V2.81H28.76L28.75 2.79999Z" fill="#A4897A"/>
<path d="M33.59 15.33C33.76 15.52 33.95 15.69 34.12 15.85L34.46 16.15L34.62 16.02L34.79 15.85L34.46 15.52C34.29 15.35 34.1 15.18 33.93 14.99L28.75 9.82001V10.5L30.05 11.79L33.59 15.33Z" fill="#A4897A"/>
<path d="M50.45 3.10999L50.9 3.57999L57.19 9.84V3.44001L57.12 3.37C54.72 1.18 52.59 1.09999 50.45 3.10999ZM43.34 3.10999L55.25 15C55.42 15.19 55.61 15.36 55.78 15.53C56.2114 15.932 56.684 16.2873 57.19 16.59V10.52L50 3.37C47.62 1.18 45.48 1.09999 43.34 3.10999ZM48.69 15.52C51.13 17.78 53.28 17.87 55.44 15.85L54.92 15.33L43 3.42002V9.82001L48.18 14.99C48.33 15.18 48.52 15.35 48.69 15.52ZM48.34 15.85C48.17 15.69 47.98 15.52 47.81 15.33L44.27 11.79L43 10.5V16.56C44.86 17.71 46.6 17.48 48.34 15.85Z" fill="white"/>
<path d="M57.19 2.81V2.79999L57.18 2.81H57.19ZM57 2.94L56.83 3.10999L57.09 3.37L57.16 3.44V2.81C57.1023 2.8477 57.0487 2.89127 57 2.94ZM56.1 15.85L55.93 16.02L55.8 16.15C56.224 16.5349 56.6903 16.8704 57.19 17.15V16.62C56.684 16.3173 56.2114 15.962 55.78 15.56L56.1 15.85Z" fill="#A4897A"/>
<path d="M50.45 3.10999C52.59 1.10999 54.72 1.18 57.12 3.37L56.86 3.10999L57.03 2.94C57.0751 2.88832 57.1253 2.84139 57.18 2.79999C56.1975 1.84779 54.9058 1.28003 53.54 1.20001C52.2189 1.26038 50.9737 1.83451 50.07 2.79999C50.35 3.02999 50.62 3.29999 50.9 3.57999L50.45 3.10999Z" fill="#A4897A"/>
<path d="M50.07 2.79999L49.94 2.94L49.77 3.10999L50.03 3.37L57.19 10.51V9.84L50.9 3.57999C50.62 3.29999 50.35 2.99999 50.07 2.79999ZM48.69 15.52L49.01 15.85L48.84 16.02L48.69 16.15C49.6674 17.1112 50.9613 17.6835 52.33 17.76C53.6523 17.696 54.8973 17.1183 55.8 16.15C55.68 16.05 55.55 15.96 55.44 15.85C53.28 17.87 51.13 17.78 48.69 15.52Z" fill="#A4897A"/>
<path d="M50 3.37L49.74 3.10999L49.91 2.94L50.04 2.79999C49.0657 1.84764 47.7801 1.27944 46.42 1.20001C45.0971 1.25291 43.8492 1.82828 42.95 2.79999L43.31 3.10999C45.48 1.09999 47.62 1.18 50 3.37Z" fill="#A4897A"/>
<path d="M55.44 15.85C55.55 15.96 55.68 16.05 55.8 16.15L55.93 16.02L56.1 15.85L55.78 15.52C55.61 15.35 55.42 15.18 55.25 14.99L43.34 3.10999L42.98 2.79999V3.41L54.93 15.32L55.44 15.85ZM48.69 16.15L48.34 15.85C46.6 17.48 44.86 17.71 42.97 16.56V17.1C43.6548 17.509 44.4327 17.7362 45.23 17.76C46.5508 17.7019 47.7949 17.123 48.69 16.15ZM42.97 2.79999V2.81H42.98L42.97 2.79999Z" fill="#A4897A"/>
<path d="M47.81 15.33C47.98 15.52 48.17 15.69 48.34 15.85L48.69 16.15L48.84 16.02L49.01 15.85L48.69 15.52C48.52 15.35 48.33 15.18 48.15 14.99L43 9.82001V10.5L44.3 11.79L47.81 15.33Z" fill="#A4897A"/>
<path d="M64.67 3.10999L65.13 3.57999L71.41 9.84V3.44001L71.35 3.37C68.94 1.18 66.81 1.09999 64.67 3.10999ZM57.56 3.10999L69.47 15C69.64 15.19 69.83 15.36 70 15.53C70.4314 15.932 70.904 16.2873 71.41 16.59V10.52L64.25 3.38001C61.85 1.18001 59.7 1.09999 57.56 3.10999ZM62.91 15.52C65.35 17.78 67.5 17.87 69.66 15.85L69.15 15.33L57.15 3.42002V9.82001L62.34 14.99C62.55 15.18 62.74 15.35 62.91 15.52ZM62.57 15.85C62.4 15.69 62.21 15.52 62.04 15.33L58.49 11.79L57.19 10.5V16.56C59.08 17.71 60.82 17.48 62.57 15.85Z" fill="white"/>
<path d="M71.41 2.81V2.79999L71.4 2.81H71.41ZM71.25 2.94L71.08 3.10999L71.35 3.37L71.41 3.44V2.81L71.25 2.94ZM70.32 15.85L70.15 16.02L70.02 16.15C70.444 16.5349 70.9103 16.8704 71.41 17.15V16.62C70.904 16.3173 70.4314 15.962 70 15.56L70.32 15.85Z" fill="#A4897A"/>
<path d="M64.67 3.10999C66.81 1.10999 68.94 1.18 71.35 3.37L71.08 3.10999L71.25 2.94L71.4 2.79999C70.4176 1.84779 69.1258 1.28003 67.76 1.20001C66.4389 1.26038 65.1937 1.83451 64.29 2.79999C64.58 3.02999 64.84 3.29999 65.13 3.57999L64.67 3.10999Z" fill="#A4897A"/>
<path d="M64.29 2.79999L64.16 2.94L63.99 3.10999L64.25 3.37L71.41 10.51V9.84L65.13 3.57999C64.84 3.29999 64.58 2.99999 64.29 2.79999ZM62.91 15.52L63.23 15.85L63.06 16.02C63.0125 16.0661 62.9624 16.1096 62.91 16.15C63.8873 17.1112 65.1813 17.6835 66.55 17.76C67.8722 17.696 69.1173 17.1183 70.02 16.15C69.91 16.05 69.77 15.96 69.66 15.85C67.5 17.87 65.35 17.78 62.91 15.52Z" fill="#A4897A"/>
<path d="M64.25 3.37L63.99 3.10999L64.16 2.94L64.29 2.79999C63.3167 1.84612 62.0305 1.27765 60.67 1.20001C59.3489 1.26038 58.1037 1.83451 57.2 2.79999L57.56 3.10999C59.7 1.09999 61.85 1.18 64.25 3.37ZM69.66 15.85C69.77 15.96 69.91 16.05 70.02 16.15L70.15 16.02L70.32 15.85L70 15.52C69.83 15.35 69.64 15.18 69.47 14.99L57.56 3.10999L57.2 2.79999V3.41L69.2 15.32L69.66 15.85ZM62.91 16.15C62.79 16.05 62.68 15.96 62.57 15.85C60.82 17.48 59.08 17.71 57.19 16.56V17.1C57.8784 17.509 58.6596 17.7361 59.46 17.76C60.7773 17.6993 62.0173 17.1206 62.91 16.15Z" fill="#A4897A"/>
<path d="M57.19 2.79999V2.81H57.2L57.19 2.79999ZM62 15.33C62.17 15.52 62.36 15.69 62.53 15.85C62.7 16.01 62.75 16.05 62.87 16.15C62.9224 16.1096 62.9725 16.0661 63.02 16.02L63.19 15.85L62.87 15.52C62.7 15.35 62.51 15.18 62.34 14.99L57.15 9.82001V10.5L58.45 11.79L62 15.33Z" fill="#A4897A"/>
<path d="M78.89 3.10999L79.35 3.57999L85.64 9.84V3.44001L85.57 3.37C83.16 1.18 81 1.09999 78.89 3.10999ZM71.78 3.10999L83.69 15C83.86 15.19 84.05 15.36 84.22 15.53C84.6548 15.9322 85.1308 16.2875 85.64 16.59V10.52L78.48 3.38001C76.07 1.18001 73.93 1.09999 71.78 3.10999ZM77.13 15.52C79.58 17.78 81.72 17.87 83.88 15.85L83.37 15.33L71.37 3.42002V9.82001L76.6 15C76.77 15.18 77 15.35 77.13 15.52ZM76.79 15.85C76.62 15.69 76.43 15.52 76.26 15.33L72.71 11.79L71.41 10.5V16.56C73.31 17.71 75 17.48 76.79 15.85Z" fill="white"/>
<path d="M85.64 2.81V2.79999L85.63 2.81H85.64ZM85.47 2.94L85.3 3.10999L85.57 3.37L85.64 3.44V2.81C85.5789 2.84713 85.5218 2.89071 85.47 2.94ZM84.55 15.85L84.37 16.02L84.24 16.15C84.6674 16.5352 85.137 16.8707 85.64 17.15V16.62C85.1308 16.3175 84.6548 15.9622 84.22 15.56L84.55 15.85Z" fill="#A4897A"/>
<path d="M78.89 3.10999C81.04 1.10999 83.16 1.18 85.57 3.37L85.3 3.10999L85.47 2.94C85.5182 2.88778 85.5718 2.84084 85.63 2.79999C84.646 1.85002 83.3552 1.28265 81.99 1.20001C80.6654 1.25781 79.4162 1.83215 78.51 2.79999C78.8 3.02999 79.06 3.29999 79.35 3.57999L78.89 3.10999Z" fill="#A4897A"/>
<path d="M78.51 2.79999L78.38 2.94L78.21 3.10999L78.48 3.37L85.64 10.51V9.84L79.35 3.57999C79.06 3.29999 78.8 2.99999 78.51 2.79999ZM77.13 15.52L77.45 15.85L77.28 16.02C77.2348 16.0685 77.1845 16.1121 77.13 16.15C78.1084 17.1096 79.4018 17.6817 80.77 17.76C82.0928 17.6981 83.3386 17.12 84.24 16.15L83.88 15.85C81.72 17.87 79.58 17.78 77.13 15.52Z" fill="#A4897A"/>
<path d="M78.48 3.37L78.21 3.10999L78.38 2.94L78.51 2.79999C77.5368 1.84612 76.2506 1.27765 74.89 1.20001C73.5689 1.26038 72.3237 1.83451 71.42 2.79999L71.78 3.10999C73.93 1.09999 76.07 1.18 78.48 3.37ZM83.88 15.85L84.24 16.15L84.37 16.02L84.55 15.85L84.22 15.52C84.05 15.35 83.86 15.18 83.69 14.99L71.78 3.10999L71.42 2.79999V3.41L83.42 15.32L83.88 15.85ZM77.13 16.15C77.02 16.05 76.9 15.96 76.79 15.85C75.04 17.48 73.31 17.71 71.41 16.56V17.1C72.0989 17.5078 72.8798 17.7348 73.68 17.76C74.9973 17.6993 76.2373 17.1206 77.13 16.15ZM71.41 2.79999V2.81H71.42L71.41 2.79999Z" fill="#A4897A"/>
<path d="M76.26 15.33C76.43 15.52 76.62 15.69 76.79 15.85C76.96 16.01 77.02 16.05 77.13 16.15C77.1845 16.1121 77.2348 16.0685 77.28 16.02L77.45 15.85L77.13 15.52C76.96 15.35 76.77 15.18 76.6 14.99L71.41 9.82001V10.5L72.71 11.79L76.26 15.33Z" fill="#A4897A"/>
<path d="M93.12 3.10999L93.57 3.57999L99.86 9.84V3.44001L99.79 3.37C97.38 1.18 95.26 1.09999 93.12 3.10999ZM86 3.10999L97.91 15C98.08 15.19 98.27 15.36 98.45 15.53C98.8814 15.932 99.354 16.2873 99.86 16.59V10.52L92.7 3.38001C90.29 1.18001 88.15 1.09999 86 3.10999ZM91.35 15.52C93.8 17.78 95.94 17.87 98.1 15.85L97.59 15.33L85.59 3.42002V9.82001L90.77 14.99C91 15.18 91.18 15.35 91.35 15.52ZM91 15.85C90.83 15.69 90.64 15.52 90.47 15.33L86.92 11.79L85.63 10.5V16.56C87.53 17.71 89.26 17.48 91 15.85Z" fill="white"/>
<path d="M99.86 2.81V2.79999L99.85 2.81H99.86ZM99.7 2.94L99.53 3.10999L99.79 3.37L99.86 3.44V2.81C99.8002 2.84468 99.7462 2.88856 99.7 2.94ZM98.77 15.85L98.6 16.02L98.46 16.15C98.8894 16.5327 99.3587 16.868 99.86 17.15V16.62C99.354 16.3173 98.8814 15.962 98.45 15.56L98.77 15.85Z" fill="#A4897A"/>
<path d="M93.12 3.10999C95.26 1.10999 97.38 1.18 99.79 3.37L99.53 3.10999L99.7 2.94C99.7424 2.8858 99.793 2.83855 99.85 2.79999C98.866 1.85002 97.5752 1.28265 96.21 1.20001C94.8871 1.25291 93.6392 1.82828 92.74 2.79999C93.02 3.02999 93.29 3.29999 93.57 3.57999L93.12 3.10999Z" fill="#A4897A"/>
<path d="M92.74 2.79999L92.6 2.94L92.43 3.10999L92.7 3.37L99.86 10.51V9.84L93.57 3.57999C93.29 3.29999 93 2.99999 92.74 2.79999ZM91.35 15.52L91.68 15.85L91.5 16.02C91.4548 16.0685 91.4045 16.1121 91.35 16.15C92.3284 17.1096 93.6218 17.6817 94.99 17.76C96.3143 17.7045 97.5625 17.1254 98.46 16.15L98.1 15.85C95.94 17.87 93.8 17.78 91.35 15.52Z" fill="#A4897A"/>
<path d="M92.7 3.37L92.43 3.10999L92.6 2.94L92.74 2.79999C91.7657 1.84764 90.4801 1.27944 89.12 1.20001C87.7971 1.25291 86.5492 1.82828 85.65 2.79999L86.01 3.10999C88.15 1.09999 90.29 1.18 92.7 3.37ZM98.1 15.85L98.46 16.15L98.6 16.02L98.77 15.85L98.45 15.52C98.27 15.35 98.08 15.18 97.91 14.99L86 3.10999L85.64 2.79999V3.41L97.64 15.32L98.1 15.85ZM91.35 16.15L91.01 15.85C89.26 17.48 87.53 17.71 85.64 16.56V17.1C86.3248 17.509 87.1028 17.7362 87.9 17.76C89.2173 17.6993 90.4573 17.1206 91.35 16.15Z" fill="#A4897A"/>
<path d="M90.48 15.33C90.65 15.52 90.84 15.69 91.01 15.85L91.35 16.15C91.4045 16.1121 91.4548 16.0685 91.5 16.02L91.68 15.85L91.35 15.52C91.18 15.35 90.99 15.18 90.82 14.99L85.64 9.82001V10.5L86.93 11.79L90.48 15.33Z" fill="#A4897A"/>
<path d="M107.34 3.10999L107.79 3.57999L114.08 9.84V3.44001L114.01 3.37C111.61 1.18 109.48 1.09999 107.34 3.10999ZM100.23 3.10999L112.14 15C112.31 15.19 112.5 15.36 112.67 15.53C113.101 15.932 113.574 16.2873 114.08 16.59V10.52L106.92 3.38001C104.51 1.18001 102.37 1.09999 100.23 3.10999ZM105.58 15.52C108.02 17.78 110.16 17.87 112.33 15.85L111.81 15.33L99.86 3.42002V9.82001L105 15C105.22 15.18 105.4 15.35 105.58 15.52ZM105.23 15.85C105.06 15.69 104.87 15.52 104.7 15.33L101.16 11.79L99.86 10.5V16.56C101.75 17.71 103.49 17.48 105.23 15.85Z" fill="white"/>
<path d="M114.08 2.81V2.79999L114.07 2.81H114.08ZM113.92 2.94L113.75 3.10999L114.01 3.37L114.08 3.44V2.81C114.022 2.8477 113.969 2.89127 113.92 2.94ZM113 15.85L112.83 16.02L112.7 16.15C113.124 16.5349 113.59 16.8704 114.09 17.15V16.62C113.584 16.3173 113.111 15.962 112.68 15.56L113 15.85Z" fill="#A4897A"/>
<path d="M107.34 3.10999C109.48 1.10999 111.61 1.18 114.01 3.37L113.75 3.10999L113.92 2.94C113.965 2.88832 114.015 2.84139 114.07 2.79999C113.088 1.84779 111.796 1.28003 110.43 1.20001C109.109 1.26038 107.864 1.83451 106.96 2.79999C107.24 3.02999 107.51 3.29999 107.79 3.57999L107.34 3.10999Z" fill="#A4897A"/>
<path d="M107 2.79999L106.87 2.94L106.7 3.10999L106.96 3.37L114.12 10.51V9.84L107.83 3.57999C107.51 3.29999 107.24 2.99999 107 2.79999ZM105.58 15.52L105.9 15.85L105.73 16.02L105.58 16.15C106.557 17.1112 107.851 17.6835 109.22 17.76C110.542 17.696 111.787 17.1183 112.69 16.15C112.57 16.05 112.44 15.96 112.33 15.85C110.16 17.87 108 17.78 105.58 15.52Z" fill="#A4897A"/>
<path d="M106.92 3.37L106.66 3.10999L106.83 2.94L106.96 2.79999C105.986 1.84764 104.7 1.27944 103.34 1.20001C102.017 1.25291 100.769 1.82828 99.87 2.79999L100.23 3.10999C102.37 1.09999 104.51 1.18 106.92 3.37Z" fill="#A4897A"/>
<path d="M112.33 15.85C112.44 15.96 112.57 16.05 112.69 16.15L112.82 16.02L112.99 15.85L112.67 15.52C112.5 15.35 112.31 15.18 112.14 14.99L100.23 3.10999L99.87 2.79999V3.41L111.82 15.32L112.33 15.85ZM105.58 16.15L105.23 15.85C103.49 17.48 101.75 17.71 99.86 16.56V17.1C100.545 17.509 101.323 17.7362 102.12 17.76C103.441 17.7019 104.685 17.123 105.58 16.15ZM99.86 2.79999V2.81H99.87L99.86 2.79999Z" fill="#A4897A"/>
<path d="M104.7 15.33C104.87 15.52 105.06 15.69 105.23 15.85L105.58 16.15L105.73 16.02L105.9 15.85L105.58 15.52C105.4 15.35 105.22 15.18 105.04 14.99L99.86 9.82001V10.5L101.16 11.79L104.7 15.33Z" fill="#A4897A"/>
<path d="M121.56 3.10999L122.02 3.57999L128.3 9.84V3.44001L128.24 3.37C125.83 1.18 123.7 1.09999 121.56 3.10999ZM114.45 3.10999L126.36 15C126.53 15.19 126.72 15.36 126.89 15.53C127.321 15.932 127.794 16.2873 128.3 16.59V10.52L121.14 3.38001C118.74 1.18001 116.59 1.09999 114.45 3.10999ZM119.8 15.52C122.24 17.78 124.39 17.87 126.55 15.85L126.04 15.33L114.04 3.42002V9.82001L119.23 14.99C119.44 15.18 119.63 15.35 119.8 15.52ZM119.46 15.85C119.29 15.69 119.1 15.52 118.93 15.33L115.38 11.79L114.08 10.5V16.56C116 17.71 117.71 17.48 119.46 15.85Z" fill="white"/>
<path d="M128.3 2.81V2.79999L128.29 2.81H128.3ZM128.14 2.94L127.97 3.10999L128.24 3.37L128.3 3.44V2.81L128.14 2.94ZM127.21 15.85L127 16L126.87 16.13C127.294 16.5149 127.76 16.8504 128.26 17.13V16.6C127.754 16.2973 127.281 15.942 126.85 15.54L127.21 15.85Z" fill="#A4897A"/>
<path d="M121.56 3.10999C123.7 1.10999 125.83 1.18 128.24 3.37L127.97 3.10999L128.14 2.94L128.29 2.79999C127.308 1.84779 126.016 1.28003 124.65 1.20001C123.329 1.26038 122.084 1.83451 121.18 2.79999C121.47 3.02999 121.73 3.29999 122.02 3.57999L121.56 3.10999Z" fill="#A4897A"/>
<path d="M121.18 2.79999L121.05 2.94L120.88 3.10999L121.14 3.37L128.3 10.51V9.84L122 3.57999C121.73 3.29999 121.47 2.99999 121.18 2.79999ZM119.8 15.52L120.12 15.85L120 16L119.85 16.13C120.827 17.0912 122.121 17.6635 123.49 17.74C124.812 17.676 126.057 17.0983 126.96 16.13C126.85 16.03 126.71 15.94 126.6 15.83C124.39 17.87 122.24 17.78 119.8 15.52Z" fill="#A4897A"/>
<path d="M121.14 3.37L120.88 3.10999L121.05 2.94L121.18 2.79999C120.207 1.84612 118.921 1.27765 117.56 1.20001C116.239 1.26038 114.994 1.83451 114.09 2.79999L114.45 3.10999C116.59 1.09999 118.74 1.18 121.14 3.37ZM126.55 15.85C126.66 15.96 126.8 16.05 126.91 16.15L127 16L127.17 15.83L126.85 15.5C126.68 15.33 126.49 15.16 126.32 14.97L114.41 3.09L114.05 2.78V3.39001L126.05 15.3L126.55 15.85ZM119.8 16.15C119.68 16.05 119.57 15.96 119.46 15.85C117.71 17.48 115.97 17.71 114.08 16.56V17.1C114.768 17.509 115.55 17.7361 116.35 17.76C117.667 17.6993 118.907 17.1206 119.8 16.15Z" fill="#A4897A"/>
<path d="M114.08 2.79999V2.81H114.09L114.08 2.79999ZM118.93 15.33C119.1 15.52 119.29 15.69 119.46 15.85C119.63 16.01 119.68 16.05 119.8 16.15L120 16L120.17 15.83L119.85 15.5C119.68 15.33 119.49 15.16 119.32 14.97L114.13 9.79999V10.48L115.43 11.77L118.93 15.33Z" fill="#A4897A"/>
<path d="M135.78 3.10999L136.24 3.57999L142.52 9.84V3.44001L142.46 3.37C140.05 1.18 137.93 1.09999 135.78 3.10999ZM128.67 3.10999L140.58 15C140.75 15.19 140.94 15.36 141.11 15.53C141.541 15.932 142.014 16.2873 142.52 16.59V10.52L135.37 3.38001C133 1.18001 130.82 1.09999 128.67 3.10999ZM134 15.52C136.45 17.78 138.59 17.87 140.75 15.85L140.24 15.33L128.24 3.42002V9.82001L133.43 14.99C133.66 15.18 133.85 15.35 134 15.52ZM133.68 15.85C133.51 15.69 133.32 15.52 133.15 15.33L129.6 11.79L128.3 10.5V16.56C130.19 17.71 131.93 17.48 133.68 15.85Z" fill="white"/>
<path d="M142.52 2.81V2.79999L142.51 2.81H142.52ZM142.36 2.94L142.19 3.10999L142.46 3.37L142.52 3.44V2.81C142.462 2.8477 142.409 2.89127 142.36 2.94ZM141.43 15.85L141.26 16.02L141.13 16.15C141.556 16.5326 142.022 16.8679 142.52 17.15V16.62C142.014 16.3173 141.541 15.962 141.11 15.56L141.43 15.85Z" fill="#A4897A"/>
<path d="M135.78 3.10999C137.93 1.10999 140.05 1.18 142.46 3.37L142.19 3.10999L142.36 2.94C142.408 2.88778 142.462 2.84084 142.52 2.79999C141.532 1.84934 140.238 1.28205 138.87 1.20001C137.549 1.26038 136.304 1.83451 135.4 2.79999C135.69 3.02999 135.95 3.29999 136.24 3.57999L135.78 3.10999Z" fill="#A4897A"/>
<path d="M135.4 2.79999L135.27 2.94L135.1 3.10999L135.37 3.37L142.52 10.51V9.84L136.24 3.57999C136 3.29999 135.69 2.99999 135.4 2.79999ZM134 15.52L134.32 15.85L134.15 16.02C134.103 16.0661 134.052 16.1096 134 16.15C134.978 17.1096 136.272 17.6817 137.64 17.76C138.963 17.6981 140.209 17.12 141.11 16.15C141 16.05 140.86 15.96 140.75 15.85C138.61 17.87 136.47 17.78 134 15.52Z" fill="#A4897A"/>
<path d="M135.37 3.37L135.1 3.10999L135.27 2.94L135.4 2.79999C134.427 1.84612 133.141 1.27765 131.78 1.20001C130.459 1.26038 129.214 1.83451 128.31 2.79999L128.67 3.10999C130.82 1.09999 133 1.18 135.37 3.37ZM140.77 15.85C140.88 15.96 141.02 16.05 141.13 16.15L141.26 16.02L141.43 15.85L141.11 15.52C140.94 15.35 140.75 15.18 140.58 14.99L128.67 3.10999L128.31 2.79999V3.41L140.31 15.32L140.77 15.85ZM134 16.15C133.89 16.05 133.77 15.96 133.66 15.85C131.91 17.48 130.17 17.71 128.28 16.56V17.1C128.969 17.5078 129.75 17.7348 130.55 17.76C131.867 17.6993 133.107 17.1206 134 16.15ZM128.3 2.79999V2.81H128.31L128.3 2.79999ZM133.15 15.33C133.32 15.52 133.51 15.69 133.68 15.85C133.85 16.01 133.91 16.05 134.02 16.15C134.072 16.1096 134.122 16.0661 134.17 16.02L134.34 15.85L134.02 15.52C133.85 15.35 133.66 15.18 133.49 14.99L128.3 9.82001V10.5L129.6 11.79L133.15 15.33Z" fill="#A4897A"/>
<path d="M150 3.10999L150.45 3.57999L156.74 9.84V3.44001L156.67 3.37C154.27 1.18 152.15 1.09999 150 3.10999ZM142.89 3.10999L154.8 15C154.97 15.19 155.16 15.36 155.33 15.53C155.767 15.93 156.242 16.2851 156.75 16.59V10.52L149.59 3.38001C147.18 1.18001 145 1.09999 142.89 3.10999ZM148.24 15.52C150.69 17.78 152.83 17.87 154.99 15.85L154.48 15.33L142.48 3.42002V9.82001L147.67 14.99C147.88 15.18 148.07 15.35 148.24 15.52ZM147.9 15.85C147.73 15.69 147.54 15.52 147.37 15.33L143.82 11.79L142.52 10.5V16.56C144.42 17.71 146.15 17.48 147.9 15.85Z" fill="white"/>
<path d="M156.75 2.81V2.79999L156.74 2.81H156.75ZM156.59 2.94L156.42 3.10999L156.68 3.37L156.75 3.44V2.81C156.69 2.84468 156.636 2.88856 156.59 2.94ZM155.66 15.85L155.49 16.02L155.35 16.15C155.779 16.5327 156.249 16.868 156.75 17.15V16.62C156.242 16.3151 155.767 15.9599 155.33 15.56L155.66 15.85Z" fill="#A4897A"/>
<path d="M150 3.10999C152.14 1.10999 154.26 1.18 156.67 3.37L156.41 3.10999L156.58 2.94C156.622 2.8858 156.673 2.83855 156.73 2.79999C155.746 1.85002 154.455 1.28265 153.09 1.20001C151.767 1.25291 150.519 1.82828 149.62 2.79999C149.9 3.02999 150.17 3.29999 150.45 3.57999L150 3.10999Z" fill="#A4897A"/>
<path d="M149.63 2.79999L149.49 2.94L149.32 3.10999L149.59 3.37L156.75 10.51V9.84L150.46 3.57999C150.18 3.29999 149.91 2.99999 149.63 2.79999ZM148.24 15.52L148.56 15.85L148.39 16.02C148.345 16.0685 148.294 16.1121 148.24 16.15C149.218 17.1096 150.512 17.6817 151.88 17.76C153.203 17.6981 154.449 17.12 155.35 16.15L154.99 15.85C152.83 17.87 150.69 17.78 148.24 15.52Z" fill="#A4897A"/>
<path d="M149.59 3.37L149.32 3.10999L149.49 2.94L149.63 2.79999C148.653 1.84544 147.364 1.27707 146 1.20001C144.679 1.26038 143.434 1.83451 142.53 2.79999L142.89 3.10999C145 1.09999 147.18 1.18 149.59 3.37Z" fill="#A4897A"/>
<path d="M155 15.85L155.36 16.15L155.5 16.02L155.67 15.85L155.34 15.52C155.17 15.35 154.98 15.18 154.81 14.99L142.9 3.10999L142.54 2.79999V3.41L154.54 15.32L155 15.85ZM148.24 16.15C148.13 16.05 148.01 15.96 147.9 15.85C146.15 17.48 144.42 17.71 142.52 16.56V17.1C143.209 17.5078 143.99 17.7348 144.79 17.76C146.107 17.6993 147.347 17.1206 148.24 16.15ZM142.52 2.79999V2.81H142.53L142.52 2.79999Z" fill="#A4897A"/>
<path d="M147.37 15.33C147.54 15.52 147.73 15.69 147.9 15.85C148.07 16.01 148.13 16.05 148.24 16.15C148.294 16.1121 148.345 16.0685 148.39 16.02L148.56 15.85L148.24 15.52C148.07 15.35 147.88 15.18 147.71 14.99L142.52 9.82001V10.5L143.82 11.79L147.37 15.33Z" fill="#A4897A"/>
<path d="M164.23 3.10999L164.68 3.57999L170.97 9.84V3.44001L170.9 3.37C168.49 1.18 166.37 1.09999 164.23 3.10999ZM157.12 3.10999L169 15C169.17 15.19 169.36 15.36 169.53 15.53C169.961 15.932 170.434 16.2873 170.94 16.59V10.52L163.78 3.38001C161.4 1.18001 159.26 1.09999 157.12 3.10999ZM162.46 15.52C164.91 17.78 167.05 17.87 169.22 15.85L168.7 15.33L156.7 3.42002V9.82001L161.88 14.99C162.1 15.18 162.29 15.35 162.46 15.52ZM162.12 15.85C161.95 15.69 161.76 15.52 161.59 15.33L158.05 11.79L156.75 10.5V16.56C158.64 17.71 160.38 17.48 162.12 15.85Z" fill="white"/>
<path d="M170.97 2.81V2.79999L170.96 2.81H170.97ZM170.81 2.94L170.64 3.10999L170.9 3.37L170.97 3.44V2.81C170.912 2.8477 170.859 2.89127 170.81 2.94ZM169.88 15.85L169.71 16.02L169.58 16.15C170.004 16.5349 170.47 16.8704 170.97 17.15V16.62C170.464 16.3173 169.991 15.962 169.56 15.56L169.88 15.85Z" fill="#A4897A"/>
<path d="M164.23 3.10999C166.37 1.10999 168.49 1.18 170.9 3.37L170.64 3.10999L170.81 2.94C170.855 2.88832 170.905 2.84139 170.96 2.79999C169.976 1.85002 168.685 1.28265 167.32 1.20001C165.997 1.25291 164.749 1.82828 163.85 2.79999C164.13 3.02999 164.4 3.29999 164.68 3.57999L164.23 3.10999Z" fill="#A4897A"/>
<path d="M163.85 2.79999L163.72 2.94L163.55 3.10999L163.81 3.37L170.97 10.51V9.84L164.68 3.57999C164.4 3.29999 164.13 2.99999 163.85 2.79999ZM162.46 15.52L162.79 15.85L162.62 16.02L162.46 16.15C163.442 17.1103 164.739 17.6823 166.11 17.76C167.432 17.696 168.677 17.1183 169.58 16.15C169.46 16.05 169.33 15.96 169.22 15.85C167.05 17.87 164.91 17.78 162.46 15.52Z" fill="#A4897A"/>
<path d="M163.81 3.37L163.55 3.10999L163.72 2.94L163.85 2.79999C162.876 1.84764 161.59 1.27944 160.23 1.20001C158.907 1.25291 157.659 1.82828 156.76 2.79999L157.12 3.10999C159.26 1.09999 161.4 1.18 163.81 3.37Z" fill="#A4897A"/>
<path d="M169.22 15.85C169.33 15.96 169.46 16.05 169.58 16.15L169.71 16.02L169.88 15.85L169.56 15.52C169.39 15.35 169.2 15.18 169.03 14.99L157.12 3.10999L156.76 2.79999V3.41L168.76 15.32L169.22 15.85ZM162.46 16.15L162.12 15.85C160.38 17.48 158.64 17.71 156.75 16.56V17.1C157.435 17.509 158.213 17.7362 159.01 17.76C160.327 17.6993 161.567 17.1206 162.46 16.15ZM156.75 2.79999V2.81H156.76L156.75 2.79999Z" fill="#A4897A"/>
<path d="M161.59 15.33C161.76 15.52 161.95 15.69 162.12 15.85L162.46 16.15L162.62 16.02L162.79 15.85L162.46 15.52C162.29 15.35 162.1 15.18 161.93 14.99L156.75 9.82001V10.5L158.05 11.79L161.59 15.33Z" fill="#A4897A"/>
<path d="M178.45 3.10999L178.91 3.57999L185.19 9.84V3.44001L185.13 3.37C182.72 1.18 180.59 1.09999 178.45 3.10999ZM171.34 3.10999L183.25 15C183.42 15.19 183.61 15.36 183.78 15.53C184.211 15.932 184.684 16.2873 185.19 16.59V10.52L178 3.37C175.63 1.18 173.48 1.09999 171.34 3.10999ZM176.69 15.52C179.13 17.78 181.28 17.87 183.44 15.85L182.93 15.33L170.93 3.42002V9.82001L176.12 14.99C176.33 15.18 176.52 15.35 176.69 15.52ZM176.35 15.85C176.17 15.69 175.99 15.52 175.81 15.33L172.27 11.79L171 10.5V16.56C172.86 17.71 174.6 17.48 176.35 15.85Z" fill="white"/>
<path d="M185.19 2.81V2.79999L185.18 2.81H185.19ZM185 2.94L184.83 3.10999L185.1 3.37L185.16 3.44V2.81L185 2.94ZM184.1 15.85L183.93 16.02L183.8 16.15C184.224 16.5349 184.69 16.8704 185.19 17.15V16.62C184.684 16.3173 184.211 15.962 183.78 15.56L184.1 15.85Z" fill="#A4897A"/>
<path d="M178.45 3.10999C180.59 1.10999 182.72 1.18 185.13 3.37L184.86 3.10999L185.03 2.94L185.18 2.79999C184.198 1.84779 182.906 1.28003 181.54 1.20001C180.219 1.26038 178.974 1.83451 178.07 2.79999C178.36 3.02999 178.62 3.29999 178.91 3.57999L178.45 3.10999Z" fill="#A4897A"/>
<path d="M178.07 2.79999L177.94 2.94L177.77 3.10999L178.03 3.37L185.19 10.51V9.84L178.91 3.57999C178.62 3.29999 178.36 2.99999 178.07 2.79999ZM176.69 15.52L177.01 15.85L176.84 16.02L176.69 16.15C177.667 17.1112 178.961 17.6835 180.33 17.76C181.652 17.696 182.897 17.1183 183.8 16.15C183.68 16.05 183.55 15.96 183.44 15.85C181.28 17.87 179.13 17.78 176.69 15.52Z" fill="#A4897A"/>
<path d="M178 3.37L177.74 3.10999L177.91 2.94L178.04 2.79999C177.067 1.84612 175.781 1.27765 174.42 1.20001C173.097 1.25291 171.849 1.82828 170.95 2.79999L171.31 3.10999C173.48 1.09999 175.63 1.18 178 3.37Z" fill="#A4897A"/>
<path d="M183.44 15.85C183.55 15.96 183.68 16.05 183.8 16.15L183.93 16.02L184.1 15.85L183.78 15.52C183.61 15.35 183.42 15.18 183.25 14.99L171.34 3.10999L170.98 2.79999V3.41L182.98 15.32L183.44 15.85ZM176.69 16.15C176.57 16.05 176.46 15.96 176.35 15.85C174.6 17.48 172.86 17.71 170.97 16.56V17.1C171.658 17.509 172.44 17.7361 173.24 17.76C174.557 17.6993 175.797 17.1206 176.69 16.15ZM170.97 2.79999V2.81H170.98L170.97 2.79999Z" fill="#A4897A"/>
<path d="M175.81 15.33C175.99 15.52 176.17 15.69 176.35 15.85C176.53 16.01 176.57 16.05 176.69 16.15L176.84 16.02L177.01 15.85L176.69 15.52C176.52 15.35 176.33 15.18 176.16 14.99L171 9.82001V10.5L172.3 11.79L175.81 15.33Z" fill="#A4897A"/>
<path d="M192.67 3.10999L193.13 3.57999L199.41 9.84V3.44001L199.35 3.37C196.94 1.18 194.82 1.09999 192.67 3.10999ZM185.56 3.10999L197.47 15C197.64 15.19 197.83 15.36 198 15.53C198.431 15.932 198.904 16.2873 199.41 16.59V10.52L192.26 3.38001C189.85 1.18001 187.7 1.09999 185.56 3.10999ZM190.91 15.52C193.36 17.78 195.5 17.87 197.66 15.85L197.15 15.33L185.15 3.42002V9.82001L190.34 14.99C190.55 15.18 190.74 15.35 190.91 15.52ZM190.57 15.85C190.4 15.69 190.21 15.52 190.04 15.33L186.49 11.79L185.19 10.5V16.56C187.08 17.71 188.82 17.48 190.57 15.85Z" fill="white"/>
<path d="M199.41 2.81V2.79999L199.4 2.81H199.41ZM199.25 2.94L199.08 3.10999L199.35 3.37L199.41 3.44V2.81L199.25 2.94ZM198.32 15.85L198.15 16.02L198.02 16.15C198.446 16.5326 198.912 16.8679 199.41 17.15V16.62C198.904 16.3173 198.431 15.962 198 15.56L198.32 15.85Z" fill="#A4897A"/>
<path d="M192.67 3.10999C194.82 1.10999 196.94 1.18 199.35 3.37L199.08 3.10999L199.25 2.94L199.4 2.79999C198.418 1.84779 197.126 1.28003 195.76 1.20001C194.439 1.26038 193.194 1.83451 192.29 2.79999C192.58 3.02999 192.84 3.29999 193.13 3.57999L192.67 3.10999Z" fill="#A4897A"/>
<path d="M192.29 2.79999L192.16 2.94L191.99 3.10999L192.26 3.37L199.41 10.51V9.84L193.13 3.57999C192.84 3.29999 192.58 2.99999 192.29 2.79999ZM190.91 15.52L191.23 15.85L191.06 16.02C191.013 16.0661 190.962 16.1096 190.91 16.15C191.888 17.1096 193.182 17.6817 194.55 17.76C195.872 17.696 197.117 17.1183 198.02 16.15C197.91 16.05 197.77 15.96 197.66 15.85C195.5 17.87 193.36 17.78 190.91 15.52Z" fill="#A4897A"/>
<path d="M192.26 3.37L191.99 3.10999L192.16 2.94L192.29 2.79999C191.317 1.84612 190.031 1.27765 188.67 1.20001C187.349 1.26038 186.104 1.83451 185.2 2.79999L185.56 3.10999C187.7 1.09999 189.85 1.18 192.26 3.37ZM197.66 15.85C197.77 15.96 197.91 16.05 198.02 16.15L198.15 16.02L198.32 15.85L198 15.52C197.83 15.35 197.64 15.18 197.47 14.99L185.56 3.10999L185.2 2.79999V3.41L197.2 15.32L197.66 15.85ZM190.91 16.15C190.8 16.05 190.68 15.96 190.57 15.85C188.82 17.48 187.08 17.71 185.19 16.56V17.1C185.879 17.5078 186.66 17.7348 187.46 17.76C188.777 17.6993 190.017 17.1206 190.91 16.15Z" fill="#A4897A"/>
<path d="M185.19 2.79999V2.81H185.2L185.19 2.79999ZM190 15.33C190.17 15.52 190.36 15.69 190.53 15.85C190.7 16.01 190.76 16.05 190.87 16.15C190.922 16.1096 190.973 16.0661 191.02 16.02L191.19 15.85L190.87 15.52C190.7 15.35 190.51 15.18 190.34 14.99L185.15 9.82001V10.5L186.45 11.79L190 15.33Z" fill="#A4897A"/>
<path d="M206.9 3.10999L207.35 3.57999L213.64 9.84V3.44001L213.57 3.37C211.16 1.18 209 1.09999 206.9 3.10999ZM199.78 3.10999L211.69 15C211.86 15.19 212.05 15.36 212.22 15.53C212.655 15.9322 213.131 16.2875 213.64 16.59V10.52L206.48 3.38001C204.07 1.18001 201.93 1.09999 199.78 3.10999ZM205.13 15.52C207.58 17.78 209.72 17.87 211.88 15.85L211.37 15.33L199.37 3.42002V9.82001L204.6 15C204.77 15.18 205 15.35 205.13 15.52ZM204.79 15.85C204.62 15.69 204.43 15.52 204.26 15.33L200.71 11.79L199.41 10.5V16.56C201.31 17.71 203 17.48 204.79 15.85Z" fill="white"/>
<path d="M213.64 2.81V2.79999L213.63 2.81H213.64ZM213.48 2.94L213.3 3.10999L213.57 3.37L213.64 3.44V2.81C213.58 2.84468 213.526 2.88856 213.48 2.94ZM212.55 15.85L212.38 16.02L212.24 16.15C212.669 16.5327 213.139 16.868 213.64 17.15V16.62C213.131 16.3175 212.655 15.9622 212.22 15.56L212.55 15.85Z" fill="#A4897A"/>
<path d="M206.9 3.10999C209.04 1.10999 211.16 1.18 213.57 3.37L213.3 3.10999L213.48 2.94C213.522 2.8858 213.573 2.83855 213.63 2.79999C212.646 1.85002 211.355 1.28265 209.99 1.20001C208.667 1.25291 207.419 1.82828 206.52 2.79999C206.8 3.02999 207.07 3.29999 207.35 3.57999L206.9 3.10999Z" fill="#A4897A"/>
<path d="M206.52 2.79999L206.38 2.94L206.21 3.10999L206.48 3.37L213.64 10.51V9.84L207.35 3.57999C207.07 3.29999 206.8 2.99999 206.52 2.79999ZM205.13 15.52L205.45 15.85L205.28 16.02C205.235 16.0685 205.184 16.1121 205.13 16.15C206.108 17.1096 207.402 17.6817 208.77 17.76C210.093 17.6981 211.339 17.12 212.24 16.15L211.88 15.85C209.72 17.87 207.58 17.78 205.13 15.52Z" fill="#A4897A"/>
<path d="M206.48 3.37L206.21 3.10999L206.38 2.94L206.52 2.79999C205.542 1.84696 204.253 1.27885 202.89 1.20001C201.569 1.26038 200.324 1.83451 199.42 2.79999L199.78 3.10999C201.93 1.09999 204.07 1.18 206.48 3.37ZM211.88 15.85L212.24 16.15L212.38 16.02L212.55 15.85L212.22 15.52C212.05 15.35 211.86 15.18 211.69 14.99L199.78 3.10999L199.42 2.79999V3.41L211.42 15.32L211.88 15.85ZM205.13 16.15C205.02 16.05 204.9 15.96 204.79 15.85C203.04 17.48 201.31 17.71 199.41 16.56V17.1C200.099 17.5078 200.88 17.7348 201.68 17.76C202.997 17.6993 204.237 17.1206 205.13 16.15ZM199.41 2.79999V2.81H199.42L199.41 2.79999Z" fill="#A4897A"/>
<path d="M204.26 15.33C204.43 15.52 204.62 15.69 204.79 15.85C204.96 16.01 205.02 16.05 205.13 16.15C205.184 16.1121 205.235 16.0685 205.28 16.02L205.45 15.85L205.13 15.52C204.96 15.35 204.77 15.18 204.6 14.99L199.41 9.82001V10.5L200.71 11.79L204.26 15.33Z" fill="#A4897A"/>
<path d="M221.12 3.10999L221.57 3.57999L227.86 9.84V3.44001L227.79 3.37C225.38 1.18 223.26 1.09999 221.12 3.10999ZM214 3.10999L225.92 15C226.09 15.19 226.28 15.36 226.45 15.53C226.881 15.932 227.354 16.2873 227.86 16.59V10.52L220.7 3.38001C218.29 1.18001 216.15 1.09999 214 3.10999ZM219.35 15.52C221.8 17.78 223.94 17.87 226.1 15.85L225.59 15.33L213.59 3.42002V9.82001L218.77 14.99C219 15.18 219.18 15.35 219.35 15.52ZM219 15.85C218.83 15.69 218.64 15.52 218.47 15.33L214.93 11.79L213.63 10.5V16.56C215.53 17.71 217.27 17.48 219 15.85Z" fill="white"/>
<path d="M227.86 2.81V2.79999L227.85 2.81H227.86ZM227.7 2.94L227.53 3.10999L227.79 3.37L227.86 3.44V2.81C227.8 2.84468 227.746 2.88856 227.7 2.94ZM226.77 15.85L226.6 16.02L226.47 16.15C226.894 16.5349 227.36 16.8704 227.86 17.15V16.62C227.354 16.3173 226.881 15.962 226.45 15.56L226.77 15.85Z" fill="#A4897A"/>
<path d="M221.12 3.10999C223.26 1.10999 225.38 1.18 227.79 3.37L227.53 3.10999L227.7 2.94C227.742 2.8858 227.793 2.83855 227.85 2.79999C226.866 1.85002 225.575 1.28265 224.21 1.20001C222.887 1.25291 221.639 1.82828 220.74 2.79999C221.02 3.02999 221.29 3.29999 221.57 3.57999L221.12 3.10999Z" fill="#A4897A"/>
<path d="M220.74 2.79999L220.61 2.94L220.43 3.10999L220.7 3.37L227.86 10.51V9.84L221.57 3.57999C221.29 3.29999 221 2.99999 220.74 2.79999ZM219.35 15.52L219.68 15.85L219.51 16.02L219.35 16.15C220.328 17.1096 221.622 17.6817 222.99 17.76C224.316 17.6985 225.565 17.1206 226.47 16.15C226.35 16.05 226.22 15.96 226.1 15.85C223.94 17.87 221.8 17.78 219.35 15.52Z" fill="#A4897A"/>
<path d="M220.7 3.37L220.43 3.10999L220.61 2.94L220.74 2.79999C219.766 1.84764 218.48 1.27944 217.12 1.20001C215.797 1.25291 214.549 1.82828 213.65 2.79999L214.01 3.10999C216.15 1.09999 218.29 1.18 220.7 3.37ZM226.1 15.85C226.22 15.96 226.35 16.05 226.47 16.15L226.6 16.02L226.77 15.85L226.45 15.52C226.28 15.35 226.09 15.18 225.92 14.99L214 3.10999L213.64 2.79999V3.41L225.64 15.32L226.1 15.85ZM219.35 16.15L219.01 15.85C217.27 17.48 215.53 17.71 213.64 16.56V17.1C214.325 17.509 215.103 17.7362 215.9 17.76C217.217 17.6993 218.457 17.1206 219.35 16.15Z" fill="#A4897A"/>
<path d="M213.64 2.79999V2.81H213.65L213.64 2.79999ZM218.48 15.33C218.65 15.52 218.84 15.69 219.01 15.85L219.35 16.15L219.51 16.02L219.68 15.85L219.35 15.52C219.18 15.35 218.99 15.18 218.82 14.99L213.64 9.82001V10.5L214.94 11.79L218.48 15.33Z" fill="#A4897A"/>
<path d="M235.34 3.10999L235.8 3.57999L242.08 9.84V3.44001L242.02 3.37C239.61 1.18 237.48 1.09999 235.34 3.10999ZM228.23 3.10999L240.14 15C240.31 15.19 240.5 15.36 240.67 15.53C241.101 15.932 241.574 16.2873 242.08 16.59V10.52L234.92 3.38001C232.51 1.18001 230.37 1.09999 228.23 3.10999ZM233.58 15.52C236.02 17.78 238.17 17.87 240.33 15.85L239.82 15.33L227.82 3.42002V9.82001L233.01 14.99C233.22 15.18 233.41 15.35 233.58 15.52ZM233.24 15.85C233.05 15.6871 232.87 15.5135 232.7 15.33L229.16 11.79L227.86 10.5V16.56C229.75 17.71 231.49 17.48 233.24 15.85Z" fill="white"/>
<path d="M242.08 2.81V2.79999L242.07 2.81H242.08ZM241.92 2.94L241.75 3.10999L242.02 3.37L242.08 3.44V2.81L241.92 2.94ZM241 15.85L240.83 16.02L240.7 16.15C241.124 16.5349 241.59 16.8704 242.09 17.15V16.62C241.584 16.3173 241.111 15.962 240.68 15.56L241 15.85Z" fill="#A4897A"/>
<path d="M235.34 3.10999C237.48 1.10999 239.61 1.18 242.02 3.37L241.75 3.10999L241.92 2.94L242.07 2.79999C241.088 1.84779 239.796 1.28003 238.43 1.20001C237.109 1.26038 235.864 1.83451 234.96 2.79999C235.25 3.02999 235.51 3.29999 235.8 3.57999L235.34 3.10999Z" fill="#A4897A"/>
<path d="M235 2.79999L234.87 2.94L234.7 3.10999L234.96 3.37L242.12 10.51V9.84L235.84 3.57999C235.51 3.29999 235.25 2.99999 235 2.79999ZM233.58 15.52L233.9 15.85L233.73 16.02L233.58 16.15C234.557 17.1112 235.851 17.6835 237.22 17.76C238.542 17.696 239.787 17.1183 240.69 16.15C240.57 16.05 240.44 15.96 240.33 15.85C238.17 17.87 236 17.78 233.58 15.52Z" fill="#A4897A"/>
<path d="M234.92 3.37L234.66 3.10999L234.83 2.94L234.96 2.79999C233.986 1.84764 232.7 1.27944 231.34 1.20001C230.017 1.25291 228.769 1.82828 227.87 2.79999L228.23 3.10999C230.37 1.09999 232.51 1.18 234.92 3.37Z" fill="#A4897A"/>
<path d="M240.33 15.85C240.44 15.96 240.57 16.05 240.69 16.15L240.82 16.02L240.99 15.85L240.67 15.52C240.5 15.35 240.31 15.18 240.14 14.99L228.23 3.10999L227.87 2.79999V3.41L239.87 15.32L240.33 15.85ZM233.58 16.15C233.46 16.05 233.35 15.96 233.24 15.85C231.49 17.48 229.75 17.71 227.86 16.56V17.1C228.548 17.5102 229.329 17.7374 230.13 17.76C231.447 17.6993 232.687 17.1206 233.58 16.15ZM227.86 2.79999V2.81H227.87L227.86 2.79999Z" fill="#A4897A"/>
<path d="M232.7 15.33C232.87 15.5135 233.05 15.6871 233.24 15.85C233.35 15.96 233.46 16.05 233.58 16.15L233.73 16.02L233.9 15.85L233.58 15.52C233.41 15.35 233.22 15.18 233.05 14.99L227.86 9.82001V10.5L229.16 11.79L232.7 15.33Z" fill="#A4897A"/>
<path d="M254.06 1.88998C252.642 1.8826 251.274 2.41123 250.23 3.36996L258.3 11.43C259.253 10.3861 259.781 9.02342 259.78 7.60995C259.777 6.09373 259.174 4.64037 258.102 3.56824C257.03 2.4961 255.576 1.89263 254.06 1.88998ZM261.62 15.41L249.62 3.46997C246.98 0.759971 244.69 0.469983 242.39 2.66998L254.3 14.56C254.47 14.75 254.66 14.92 254.83 15.09C257.32 17.34 259.46 17.43 261.62 15.41ZM247.78 15.09C250.23 17.34 252.37 17.43 254.53 15.41L254.02 14.9L242.08 2.99997V9.40997L247.25 14.56C247.42 14.75 247.61 14.92 247.78 15.09ZM247.42 15.41L246.93 14.9L242.08 10.07V16.14C244 17.27 245.7 17 247.42 15.41Z" fill="white"/>
<path d="M258.25 11.49L258.59 11.81V11.76L258.26 11.43L258.25 11.49ZM250.23 3.37001C251.274 2.41127 252.642 1.88264 254.06 1.89002C255.576 1.89267 257.03 2.49614 258.102 3.56828C259.174 4.64041 259.777 6.09377 259.78 7.61C259.781 9.02346 259.253 10.3861 258.3 11.43L258.63 11.76C259.674 10.6298 260.256 9.1487 260.26 7.61C260.262 6.40706 259.914 5.22957 259.259 4.22056C258.604 3.21155 257.67 2.41448 256.571 1.92622C255.471 1.43795 254.254 1.27951 253.066 1.47013C251.878 1.66076 250.771 2.19224 249.88 3.00001L250 3.11L250.23 3.37001ZM250.13 3.45002C250.158 3.41743 250.192 3.39029 250.23 3.37001L250 3.14002L249.88 3.03001C249.88 3.03001 249.88 3.09 249.81 3.11L250.13 3.45002ZM247.78 15.09L248.1 15.41L247.93 15.58L247.8 15.71C248.775 16.6743 250.07 17.2472 251.44 17.32C252.756 17.2529 253.993 16.6753 254.89 15.71C254.78 15.62 254.64 15.52 254.53 15.41C252.37 17.43 250.23 17.34 247.78 15.09Z" fill="#A4897A"/>
<path d="M249.66 3.47L261.66 15.41C259.5 17.41 257.36 17.34 254.91 15.09L255.23 15.41L255.06 15.58L254.93 15.71C255.899 16.6722 257.187 17.2451 258.55 17.32C259.237 17.2848 259.911 17.1128 260.53 16.814C261.15 16.5152 261.704 16.0957 262.16 15.58L262.33 15.41L258.67 11.76V11.81L258.33 11.49V11.43L250.26 3.37C250.222 3.39028 250.188 3.41742 250.16 3.45001L249.84 3.10999C249.84 3.10999 249.9 3.11 249.91 3.03C248.38 1.5 246.91 0.76001 245.55 0.76001C244.238 0.820706 243.002 1.39544 242.11 2.35999L242.46 2.64999C244.73 0.509994 247 0.760001 249.66 3.47Z" fill="#A4897A"/>
<path d="M254.53 15.41C254.64 15.52 254.78 15.62 254.89 15.71L255.02 15.58L255.19 15.41L254.87 15.09C254.7 14.92 254.51 14.75 254.34 14.56L242.43 2.67001L242.08 2.38V3L254 14.9L254.53 15.41ZM247.8 15.71C247.495 15.4565 247.205 15.1861 246.93 14.9L247.42 15.41C245.7 17.03 243.96 17.27 242.08 16.14V16.67C242.762 17.0759 243.537 17.2997 244.33 17.32C245.652 17.256 246.897 16.6783 247.8 15.71Z" fill="#A4897A"/>
<path d="M247.8 15.71L247.93 15.58L248.1 15.41L247.78 15.09C247.61 14.92 247.42 14.75 247.25 14.56L242.08 9.41003V10.07L246.93 14.9C247.205 15.1861 247.495 15.4565 247.8 15.71Z" fill="#A4897A"/>
</svg>
